<?xml version="1.0" encoding="UTF-8"?>
<svg width="128pt" height="128pt" version="1.1" viewBox="0 0 128 128" xmlns="http://www.w3.org/2000/svg">
 <path d="m81.652 98.559c3.8438 0.019531 7.543-1.4453 10.336-4.0859s4.457-6.2578 4.6523-10.094v-0.20312l14.539-16.336c3.0664-3.5547 8.3867-4.0742 12.086-1.1758 1.7773 1.4688 2.8867 3.5977 3.0742 5.8984 0.1875 2.3047-0.55859 4.582-2.0781 6.3242l-29.031 33.281c-3.8711 4.4336-9.4727 6.9805-15.359 6.9727h-43.633l-7.5781 7.5781-27.035-26.355 19.367-19.199c3.9336-3.9062 8.8867-6.6289 14.293-7.8555 5.4102-1.2227 11.055-0.90234 16.285 0.92969l4.25 1.4961 26.176 0.003906c2.2305 0 4.3672 0.90234 5.9219 2.5039 1.5547 1.6016 2.3906 3.7656 2.3203 5.9961-0.29297 4.5078-4.0703 7.9922-8.5859 7.9219h-15.707c-1.7656 0-3.1992 1.4336-3.1992 3.1992 0 1.7695 1.4336 3.1992 3.1992 3.1992zm-15.848-61.234c2.1133 1.1992 4.3164 2.2266 6.5938 3.0742 0.97266 0.38281 1.9453 0.78125 2.9062 1.2031h-0.003907c1.1484 0.48828 2.2188 1.1328 3.1875 1.918 1.1523 0.78906 1.7578 2.1562 1.5703 3.5352-0.18359 1.3828-1.1328 2.5391-2.4531 2.9922-1.7344 0.73047-3.6367 0.98047-5.5039 0.71875-3.0781-0.33984-6.0703-1.2305-8.832-2.6367-0.57422-0.35547-1.2305-0.56641-1.9062-0.61719-1.5352 0-2.0078 1.5469-2.2773 2.3789-0.5 1.6016-0.94531 3.2109-1.3828 4.8242-0.71875 2.6367-0.26953 3.6211 2.2031 4.8242l-0.003906 0.007813c2.7148 1.2305 5.5977 2.0586 8.5508 2.457 0.47266 0.050782 0.93359 0.14844 1.3828 0.29297 0.097656 0.49219 0.13672 0.99609 0.11719 1.5v3.1602c-0.054687 0.81641 0.24609 1.6172 0.82031 2.1953 0.57422 0.58203 1.3711 0.89453 2.1875 0.85156h4.7344c0.80078 0.042969 1.5781-0.26172 2.1328-0.83594s0.83203-1.3633 0.76172-2.1602v-1.4336-2.9297c0-0.97266 0.23047-1.2812 1.2812-1.5742h-0.003906c3.3945-0.89062 6.418-2.832 8.6406-5.543 2.9062-3.5039 4.0977-8.125 3.2539-12.598-0.95312-4.7656-3.9805-8.8633-8.2578-11.172-2.4062-1.2695-4.8867-2.3984-7.4258-3.3789l-0.97266-0.39844c-1.4844-0.59766-2.8789-1.3984-4.1445-2.3789-0.89063-0.64453-1.3789-1.7109-1.2812-2.8047 0.20703-1.1172 0.99219-2.043 2.0625-2.4336 0.76562-0.30078 1.582-0.46484 2.4062-0.47266 3.3828-0.20312 6.7656 0.46484 9.8164 1.9453 3.1484 1.5234 3.8398-0.76953 4.0977-1.7422 0.42188-1.2812 0.79297-2.5586 1.1641-3.9023l0.43359-1.5352c0.26953-0.73047 0.23047-1.5352-0.10938-2.2344-0.33594-0.70312-0.94531-1.2344-1.6836-1.4766-2.168-0.95703-4.4531-1.625-6.7969-1.9844-2.1133-0.33203-2.1133-0.33203-2.1133-2.457 0-4.4688-0.34375-5.1211-4.7109-5.1211h-2.3516c-2.5586 0.078126-3.25 0.83203-3.3164 3.3398v1.7422 0.93359c0 1.8828 0 1.8828-1.8672 2.5586-6.8086 2.4688-10.469 7.1289-10.879 13.836-0.37109 5.6484 2.25 10.102 7.9727 13.531z" fill="#01bcee"/>
</svg>
