<?xml version="1.0" encoding="UTF-8"?>
<svg width="128pt" height="128pt" version="1.1" viewBox="0 0 128 128" xmlns="http://www.w3.org/2000/svg">
 <path d="m103.57 27.094c-11.199-2.7969-22.059-6.8203-32.375-12l-3.0391-1.4961c-2.625-1.2812-5.6953-1.2812-8.3203 0l-3.0391 1.4961c-10.316 5.1797-21.176 9.2031-32.375 12-4.1641 1.0312-7.0938 4.7695-7.0898 9.0664v16.266c0.035156 13.602 4.1992 26.871 11.941 38.051 7.7461 11.18 18.699 19.746 31.422 24.566 2.1367 0.78516 4.4766 0.78516 6.6094 0 12.719-4.8203 23.676-13.387 31.422-24.566 7.7383-11.18 11.906-24.449 11.941-38.051v-16c0.10938-4.3867-2.8359-8.2617-7.0898-9.3281zm-18.719 23.465-22.238 26.664c-0.71875 0.86328-1.7617 1.3867-2.8789 1.4414-1.0586 0-2.0781-0.42187-2.8281-1.1719l-13.488-13.496c-0.76562-0.74609-1.1953-1.7617-1.1953-2.8242 0-1.0664 0.42969-2.0859 1.1953-2.8281 0.78906-0.70312 1.8281-1.0703 2.8906-1.0117 1.0586 0.058594 2.0547 0.53906 2.7617 1.3281l10.238 10.238 19.414-23.305c1.4062-1.6797 3.8984-1.9219 5.6016-0.53516 1.5898 1.4102 1.8203 3.8047 0.53516 5.4961z" fill="#01bcee"/>
</svg>
