<?xml version="1.0" encoding="UTF-8"?>
<svg width="128pt" height="128pt" version="1.1" viewBox="0 0 128 128" xmlns="http://www.w3.org/2000/svg">
 <path d="m64 32.477c-17.41 0-31.523 14.113-31.523 31.523s14.105 31.523 31.523 31.523 31.523-14.113 31.523-31.523-14.113-31.523-31.523-31.523zm18.906 48.371c-0.58984 0.66406-1.4219 1.0117-2.2383 1.0117-0.71484 0-1.4336-0.24609-1.9961-0.76953l-17.664-15.746v-22.855c0-1.6641 1.3438-3.0117 3.0117-3.0117 1.6641 0 3.0117 1.3438 3.0117 3.0117v20.16l15.656 13.949c1.2266 1.1133 1.3398 3.0117 0.22656 4.25z" fill="#01bcee"/>
 <path d="m12.941 77.07c-1.8047-7.0156-2.2383-14.105-1.0117-21.234 5.1445-29.785 32.129-48.781 61.859-43.57 6.7852 1.1914 13.043 3.7383 19.07 7.7461-2.5195 2.4453-4.8516 4.7617-7.2305 7.0156-1.4102 1.3281-1.9453 2.8633-1.1641 4.6602 0.73828 1.7148 2.2266 2.2539 4.0312 2.2383 7.0547-0.039062 14.121 0 21.168-0.023437 3.1836-0.015625 4.5547-1.3789 4.5703-4.6367 0.039063-6.8984 0-13.801 0.015625-20.711 0-1.9336-0.41016-3.5938-2.3711-4.4531-1.9961-0.87109-3.4453 0.050782-4.7852 1.4336-2.8945 2.9688-5.8242 5.8984-8.8281 8.9336-0.98438-0.61328-1.6406-1.0352-2.3047-1.4453-14.859-9.1406-30.809-11.648-47.641-7.1719-24.871 6.6406-42.66 28.449-44.48 54.176-0.5 7.1055 0.33594 14.078 2.3281 20.914 0.71484 2.4844 2.6484 3.6211 4.7734 2.9961 2.1484-0.64062 3.1016-2.5586 2.4844-5.0703-0.14453-0.60156-0.33594-1.1992-0.48828-1.8008z" fill="#01bcee"/>
 <path d="m121.88 47.398c-0.82812-2.9453-3.125-4.1836-5.4648-3.0469-1.7656 0.85938-2.4688 2.6602-1.8047 5.0195 2.1016 7.4258 2.6914 14.965 1.4844 22.59-4.8086 30.602-34.25 50.406-64.395 43.324-5.8242-1.3711-11.273-3.6484-16.68-7.3359 2.4961-2.3398 4.7734-4.5039 7.0781-6.6211 1.4609-1.3281 2.2656-2.8789 1.5-4.8164-0.78125-1.9609-2.4453-2.3945-4.4141-2.3789-6.7461 0.050782-13.488 0.015626-20.234 0.023438-3.9961 0-5.2188 1.2305-5.1719 5.1953 0.089844 6.7461 0.21875 13.488 0.26953 20.234 0.015625 1.9609 0.41016 3.5859 2.4062 4.4062 2.0117 0.82031 3.4297-0.17969 4.7852-1.5234 2.8945-2.8633 5.8359-5.6719 8.8867-8.6133 0.61328 0.37109 1.3281 0.82031 2.0586 1.2812 8.8945 5.5703 18.586 8.6914 29.055 9.1016 25.379 1 47.898-13.082 58.074-36.363 5.7148-13.137 6.4453-26.691 2.5664-40.477z" fill="#01bcee"/>
</svg>
