<svg xmlns="http://www.w3.org/2000/svg" xmlns:xlink="http://www.w3.org/1999/xlink" width="130" zoomAndPan="magnify" viewBox="0 0 97.5 30.000001" height="40" preserveAspectRatio="xMidYMid meet" version="1.0"><defs><g/><clipPath id="d8302db5e7"><path d="M 4.378906 5.546875 L 20.347656 5.546875 L 20.347656 23.691406 L 4.378906 23.691406 Z M 4.378906 5.546875 " clip-rule="nonzero"/></clipPath></defs><g clip-path="url(#d8302db5e7)"><path fill="#000000" d="M 14.816406 12.605469 L 12.292969 14.070312 L 9.765625 12.605469 C 10.359375 11.863281 11.269531 11.390625 12.292969 11.390625 C 13.3125 11.390625 14.21875 11.863281 14.816406 12.605469 Z M 12.292969 5.546875 L 4.941406 9.808594 L 8.882812 12.089844 C 9.65625 11.050781 10.894531 10.375 12.292969 10.375 C 13.6875 10.375 14.921875 11.050781 15.699219 12.089844 L 19.636719 9.808594 Z M 11.785156 17.878906 L 11.785156 14.953125 L 9.257812 13.488281 C 9.117188 13.855469 9.039062 14.246094 9.039062 14.660156 C 9.039062 16.285156 10.230469 17.636719 11.785156 17.878906 Z M 8.027344 14.660156 C 8.027344 14.0625 8.148438 13.488281 8.371094 12.972656 L 4.4375 10.6875 L 4.4375 19.214844 L 11.785156 23.476562 L 11.785156 18.910156 C 9.671875 18.652344 8.027344 16.847656 8.027344 14.660156 Z M 15.539062 14.660156 C 15.539062 14.246094 15.460938 13.855469 15.320312 13.488281 L 12.796875 14.953125 L 12.796875 17.878906 C 14.347656 17.636719 15.539062 16.28125 15.539062 14.660156 Z M 16.207031 12.976562 C 16.429688 13.492188 16.550781 14.0625 16.550781 14.660156 C 16.550781 16.847656 14.90625 18.652344 12.796875 18.910156 L 12.796875 23.476562 L 20.144531 19.214844 L 20.144531 10.6875 Z M 16.207031 12.976562 " fill-opacity="1" fill-rule="nonzero"/></g><g fill="#000000" fill-opacity="1"><g transform="translate(21.840399, 19.596776)"><g><path d="M 4.828125 0.09375 C 3.992188 0.101562 3.234375 -0.0625 2.546875 -0.40625 C 1.859375 -0.757812 1.3125 -1.296875 0.90625 -2.015625 C 0.5 -2.742188 0.296875 -3.648438 0.296875 -4.734375 C 0.296875 -5.835938 0.5 -6.75 0.90625 -7.46875 C 1.3125 -8.1875 1.859375 -8.71875 2.546875 -9.0625 C 3.234375 -9.414062 3.992188 -9.585938 4.828125 -9.578125 C 5.648438 -9.566406 6.40625 -9.382812 7.09375 -9.03125 C 7.78125 -8.675781 8.328125 -8.144531 8.734375 -7.4375 C 9.148438 -6.726562 9.351562 -5.828125 9.34375 -4.734375 C 9.351562 -3.648438 9.148438 -2.75 8.734375 -2.03125 C 8.328125 -1.320312 7.78125 -0.789062 7.09375 -0.4375 C 6.40625 -0.09375 5.648438 0.0820312 4.828125 0.09375 Z M 4.828125 -1.453125 C 5.359375 -1.460938 5.828125 -1.566406 6.234375 -1.765625 C 6.640625 -1.960938 6.953125 -2.300781 7.171875 -2.78125 C 7.398438 -3.257812 7.515625 -3.910156 7.515625 -4.734375 C 7.515625 -5.566406 7.398438 -6.222656 7.171875 -6.703125 C 6.953125 -7.179688 6.640625 -7.519531 6.234375 -7.71875 C 5.828125 -7.925781 5.359375 -8.03125 4.828125 -8.03125 C 4.296875 -8.039062 3.820312 -7.941406 3.40625 -7.734375 C 3 -7.523438 2.679688 -7.179688 2.453125 -6.703125 C 2.234375 -6.222656 2.125 -5.566406 2.125 -4.734375 C 2.125 -3.921875 2.234375 -3.269531 2.453125 -2.78125 C 2.679688 -2.300781 3 -1.957031 3.40625 -1.75 C 3.820312 -1.550781 4.296875 -1.453125 4.828125 -1.453125 Z M 4.828125 -1.453125 "/></g></g></g><g fill="#000000" fill-opacity="1"><g transform="translate(31.007283, 19.596776)"><g><path d="M 4.171875 0.09375 C 3.484375 0.09375 2.894531 0.0078125 2.40625 -0.15625 C 1.925781 -0.320312 1.535156 -0.539062 1.234375 -0.8125 C 0.941406 -1.082031 0.71875 -1.375 0.5625 -1.6875 C 0.414062 -2.007812 0.328125 -2.316406 0.296875 -2.609375 L 2.078125 -2.84375 C 2.097656 -2.539062 2.1875 -2.289062 2.34375 -2.09375 C 2.5 -1.894531 2.679688 -1.742188 2.890625 -1.640625 C 3.097656 -1.535156 3.316406 -1.460938 3.546875 -1.421875 C 3.773438 -1.378906 3.984375 -1.359375 4.171875 -1.359375 C 4.347656 -1.359375 4.550781 -1.375 4.78125 -1.40625 C 5.019531 -1.4375 5.242188 -1.5 5.453125 -1.59375 C 5.671875 -1.695312 5.847656 -1.847656 5.984375 -2.046875 C 6.128906 -2.242188 6.203125 -2.507812 6.203125 -2.84375 C 6.203125 -3.21875 6.097656 -3.5 5.890625 -3.6875 C 5.691406 -3.882812 5.421875 -4.023438 5.078125 -4.109375 C 4.742188 -4.191406 4.375 -4.253906 3.96875 -4.296875 C 3.570312 -4.335938 3.175781 -4.390625 2.78125 -4.453125 C 2.382812 -4.523438 2.015625 -4.640625 1.671875 -4.796875 C 1.335938 -4.960938 1.066406 -5.210938 0.859375 -5.546875 C 0.660156 -5.878906 0.5625 -6.320312 0.5625 -6.875 C 0.5625 -7.4375 0.71875 -7.921875 1.03125 -8.328125 C 1.34375 -8.742188 1.765625 -9.0625 2.296875 -9.28125 C 2.835938 -9.507812 3.445312 -9.617188 4.125 -9.609375 C 4.75 -9.597656 5.3125 -9.492188 5.8125 -9.296875 C 6.320312 -9.097656 6.742188 -8.816406 7.078125 -8.453125 C 7.410156 -8.097656 7.613281 -7.6875 7.6875 -7.21875 L 5.890625 -6.984375 C 5.847656 -7.316406 5.722656 -7.566406 5.515625 -7.734375 C 5.316406 -7.910156 5.085938 -8.03125 4.828125 -8.09375 C 4.578125 -8.15625 4.34375 -8.1875 4.125 -8.1875 C 3.957031 -8.1875 3.769531 -8.171875 3.5625 -8.140625 C 3.351562 -8.117188 3.15625 -8.066406 2.96875 -7.984375 C 2.78125 -7.910156 2.625 -7.785156 2.5 -7.609375 C 2.375 -7.429688 2.3125 -7.1875 2.3125 -6.875 C 2.3125 -6.5625 2.410156 -6.328125 2.609375 -6.171875 C 2.816406 -6.015625 3.085938 -5.90625 3.421875 -5.84375 C 3.765625 -5.78125 4.132812 -5.726562 4.53125 -5.6875 C 4.9375 -5.644531 5.335938 -5.582031 5.734375 -5.5 C 6.140625 -5.414062 6.507812 -5.28125 6.84375 -5.09375 C 7.1875 -4.914062 7.457031 -4.644531 7.65625 -4.28125 C 7.863281 -3.925781 7.96875 -3.445312 7.96875 -2.84375 C 7.96875 -2.539062 7.90625 -2.21875 7.78125 -1.875 C 7.65625 -1.53125 7.445312 -1.207031 7.15625 -0.90625 C 6.875 -0.601562 6.488281 -0.359375 6 -0.171875 C 5.507812 0.00390625 4.898438 0.09375 4.171875 0.09375 Z M 4.171875 0.09375 "/></g></g></g><g fill="#000000" fill-opacity="1"><g transform="translate(40.877189, 19.596776)"><g><path d="M 0.40625 0 L 0.40625 -9.484375 L 4.09375 -9.484375 C 4.863281 -9.484375 5.523438 -9.347656 6.078125 -9.078125 C 6.640625 -8.816406 7.070312 -8.441406 7.375 -7.953125 C 7.675781 -7.460938 7.828125 -6.878906 7.828125 -6.203125 C 7.828125 -5.523438 7.671875 -4.941406 7.359375 -4.453125 C 7.046875 -3.960938 6.613281 -3.582031 6.0625 -3.3125 L 7.953125 0 L 6.03125 0 L 4.4375 -2.9375 C 4.382812 -2.925781 4.328125 -2.921875 4.265625 -2.921875 C 4.210938 -2.921875 4.15625 -2.921875 4.09375 -2.921875 L 2.171875 -2.921875 L 2.171875 0 Z M 2.171875 -4.4375 L 4.09375 -4.4375 C 4.675781 -4.4375 5.128906 -4.582031 5.453125 -4.875 C 5.785156 -5.175781 5.953125 -5.617188 5.953125 -6.203125 C 5.953125 -6.785156 5.785156 -7.222656 5.453125 -7.515625 C 5.128906 -7.816406 4.675781 -7.96875 4.09375 -7.96875 L 2.171875 -7.96875 Z M 2.171875 -4.4375 "/></g></g></g><g fill="#000000" fill-opacity="1"><g transform="translate(48.175345, 19.596776)"><g><path d="M 3.71875 0.078125 C 3.125 0.078125 2.566406 -0.046875 2.046875 -0.296875 C 1.523438 -0.546875 1.101562 -0.925781 0.78125 -1.4375 C 0.457031 -1.957031 0.296875 -2.609375 0.296875 -3.390625 C 0.296875 -4.171875 0.457031 -4.816406 0.78125 -5.328125 C 1.101562 -5.835938 1.523438 -6.222656 2.046875 -6.484375 C 2.566406 -6.742188 3.125 -6.867188 3.71875 -6.859375 C 4.300781 -6.859375 4.851562 -6.726562 5.375 -6.46875 C 5.894531 -6.21875 6.316406 -5.835938 6.640625 -5.328125 C 6.972656 -4.816406 7.140625 -4.171875 7.140625 -3.390625 C 7.140625 -3.203125 7.125 -3.019531 7.09375 -2.84375 L 2.09375 -2.84375 C 2.15625 -2.445312 2.269531 -2.132812 2.4375 -1.90625 C 2.613281 -1.6875 2.8125 -1.535156 3.03125 -1.453125 C 3.257812 -1.367188 3.488281 -1.328125 3.71875 -1.328125 C 4.113281 -1.335938 4.46875 -1.425781 4.78125 -1.59375 C 5.101562 -1.769531 5.367188 -2.066406 5.578125 -2.484375 L 6.953125 -1.90625 C 6.691406 -1.289062 6.285156 -0.804688 5.734375 -0.453125 C 5.191406 -0.109375 4.519531 0.0664062 3.71875 0.078125 Z M 2.125 -4.109375 L 5.296875 -4.109375 C 5.191406 -4.597656 4.988281 -4.941406 4.6875 -5.140625 C 4.382812 -5.347656 4.0625 -5.453125 3.71875 -5.453125 C 3.375 -5.460938 3.050781 -5.363281 2.75 -5.15625 C 2.445312 -4.945312 2.238281 -4.597656 2.125 -4.109375 Z M 2.125 -4.109375 "/></g></g></g><g fill="#000000" fill-opacity="1"><g transform="translate(54.999638, 19.596776)"><g><path d="M 3.859375 0.078125 C 3.421875 0.078125 2.988281 0.0078125 2.5625 -0.125 C 2.132812 -0.269531 1.75 -0.484375 1.40625 -0.765625 C 1.070312 -1.054688 0.800781 -1.414062 0.59375 -1.84375 C 0.394531 -2.28125 0.296875 -2.796875 0.296875 -3.390625 C 0.296875 -3.972656 0.394531 -4.476562 0.59375 -4.90625 C 0.800781 -5.34375 1.070312 -5.707031 1.40625 -6 C 1.75 -6.289062 2.132812 -6.503906 2.5625 -6.640625 C 2.988281 -6.785156 3.421875 -6.859375 3.859375 -6.859375 C 4.316406 -6.859375 4.753906 -6.789062 5.171875 -6.65625 C 5.585938 -6.53125 5.957031 -6.328125 6.28125 -6.046875 C 6.613281 -5.765625 6.867188 -5.394531 7.046875 -4.9375 L 5.59375 -4.234375 C 5.425781 -4.703125 5.195312 -5.03125 4.90625 -5.21875 C 4.625 -5.414062 4.273438 -5.519531 3.859375 -5.53125 C 3.554688 -5.539062 3.265625 -5.476562 2.984375 -5.34375 C 2.710938 -5.207031 2.488281 -4.984375 2.3125 -4.671875 C 2.144531 -4.367188 2.0625 -3.941406 2.0625 -3.390625 C 2.0625 -2.835938 2.144531 -2.40625 2.3125 -2.09375 C 2.488281 -1.78125 2.710938 -1.5625 2.984375 -1.4375 C 3.265625 -1.3125 3.554688 -1.25 3.859375 -1.25 C 4.273438 -1.257812 4.625 -1.359375 4.90625 -1.546875 C 5.195312 -1.742188 5.425781 -2.078125 5.59375 -2.546875 L 7.046875 -1.84375 C 6.867188 -1.382812 6.613281 -1.015625 6.28125 -0.734375 C 5.957031 -0.453125 5.585938 -0.25 5.171875 -0.125 C 4.753906 0 4.316406 0.0664062 3.859375 0.078125 Z M 3.859375 0.078125 "/></g></g></g><g fill="#000000" fill-opacity="1"><g transform="translate(61.729151, 19.596776)"><g><path d="M 3.765625 0.078125 C 3.171875 0.078125 2.609375 -0.046875 2.078125 -0.296875 C 1.546875 -0.546875 1.113281 -0.925781 0.78125 -1.4375 C 0.457031 -1.957031 0.296875 -2.609375 0.296875 -3.390625 C 0.296875 -4.171875 0.457031 -4.816406 0.78125 -5.328125 C 1.113281 -5.835938 1.546875 -6.222656 2.078125 -6.484375 C 2.609375 -6.742188 3.171875 -6.867188 3.765625 -6.859375 C 4.359375 -6.859375 4.921875 -6.726562 5.453125 -6.46875 C 5.984375 -6.21875 6.410156 -5.835938 6.734375 -5.328125 C 7.066406 -4.816406 7.234375 -4.171875 7.234375 -3.390625 C 7.234375 -2.609375 7.066406 -1.957031 6.734375 -1.4375 C 6.410156 -0.925781 5.984375 -0.546875 5.453125 -0.296875 C 4.921875 -0.046875 4.359375 0.078125 3.765625 0.078125 Z M 3.765625 -1.3125 C 4.328125 -1.3125 4.75 -1.5 5.03125 -1.875 C 5.320312 -2.25 5.46875 -2.753906 5.46875 -3.390625 C 5.46875 -4.023438 5.320312 -4.523438 5.03125 -4.890625 C 4.75 -5.265625 4.328125 -5.453125 3.765625 -5.453125 C 3.210938 -5.460938 2.789062 -5.28125 2.5 -4.90625 C 2.207031 -4.53125 2.0625 -4.023438 2.0625 -3.390625 C 2.0625 -2.753906 2.207031 -2.25 2.5 -1.875 C 2.789062 -1.5 3.210938 -1.3125 3.765625 -1.3125 Z M 3.765625 -1.3125 "/></g></g></g><g fill="#000000" fill-opacity="1"><g transform="translate(68.174205, 19.596776)"><g><path d="M 2.796875 0 L 0.265625 -6.78125 L 2.234375 -6.78125 L 3.71875 -2.125 L 5.1875 -6.78125 L 7.15625 -6.78125 L 4.625 0 Z M 2.796875 0 "/></g></g></g><g fill="#000000" fill-opacity="1"><g transform="translate(74.510936, 19.596776)"><g><path d="M 3.71875 0.078125 C 3.125 0.078125 2.566406 -0.046875 2.046875 -0.296875 C 1.523438 -0.546875 1.101562 -0.925781 0.78125 -1.4375 C 0.457031 -1.957031 0.296875 -2.609375 0.296875 -3.390625 C 0.296875 -4.171875 0.457031 -4.816406 0.78125 -5.328125 C 1.101562 -5.835938 1.523438 -6.222656 2.046875 -6.484375 C 2.566406 -6.742188 3.125 -6.867188 3.71875 -6.859375 C 4.300781 -6.859375 4.851562 -6.726562 5.375 -6.46875 C 5.894531 -6.21875 6.316406 -5.835938 6.640625 -5.328125 C 6.972656 -4.816406 7.140625 -4.171875 7.140625 -3.390625 C 7.140625 -3.203125 7.125 -3.019531 7.09375 -2.84375 L 2.09375 -2.84375 C 2.15625 -2.445312 2.269531 -2.132812 2.4375 -1.90625 C 2.613281 -1.6875 2.8125 -1.535156 3.03125 -1.453125 C 3.257812 -1.367188 3.488281 -1.328125 3.71875 -1.328125 C 4.113281 -1.335938 4.46875 -1.425781 4.78125 -1.59375 C 5.101562 -1.769531 5.367188 -2.066406 5.578125 -2.484375 L 6.953125 -1.90625 C 6.691406 -1.289062 6.285156 -0.804688 5.734375 -0.453125 C 5.191406 -0.109375 4.519531 0.0664062 3.71875 0.078125 Z M 2.125 -4.109375 L 5.296875 -4.109375 C 5.191406 -4.597656 4.988281 -4.941406 4.6875 -5.140625 C 4.382812 -5.347656 4.0625 -5.453125 3.71875 -5.453125 C 3.375 -5.460938 3.050781 -5.363281 2.75 -5.15625 C 2.445312 -4.945312 2.238281 -4.597656 2.125 -4.109375 Z M 2.125 -4.109375 "/></g></g></g><g fill="#000000" fill-opacity="1"><g transform="translate(81.470664, 19.596776)"><g><path d="M 0.40625 0 L 0.40625 -6.78125 L 2.171875 -6.78125 L 2.171875 -5.53125 C 2.390625 -6.007812 2.6875 -6.351562 3.0625 -6.5625 C 3.4375 -6.769531 3.898438 -6.875 4.453125 -6.875 L 4.484375 -6.875 L 4.484375 -5.34375 C 3.972656 -5.34375 3.546875 -5.25 3.203125 -5.0625 C 2.859375 -4.882812 2.597656 -4.566406 2.421875 -4.109375 C 2.253906 -3.648438 2.171875 -3.007812 2.171875 -2.1875 L 2.171875 0 Z M 0.40625 0 "/></g></g></g><g fill="#000000" fill-opacity="1"><g transform="translate(85.749307, 19.596776)"><g><path d="M 1.015625 3.1875 L 1.015625 1.640625 L 1.375 1.640625 C 1.59375 1.640625 1.757812 1.628906 1.875 1.609375 C 2 1.585938 2.097656 1.523438 2.171875 1.421875 C 2.242188 1.316406 2.316406 1.164062 2.390625 0.96875 L 2.734375 -0.015625 L 0.203125 -6.78125 L 2.09375 -6.78125 L 3.5625 -2.421875 L 5.046875 -6.78125 L 6.9375 -6.78125 L 4.03125 0.96875 C 3.84375 1.539062 3.613281 1.988281 3.34375 2.3125 C 3.082031 2.632812 2.789062 2.859375 2.46875 2.984375 C 2.144531 3.117188 1.78125 3.1875 1.375 3.1875 Z M 1.015625 3.1875 "/></g></g></g></svg>