<svg xmlns="http://www.w3.org/2000/svg" xmlns:xlink="http://www.w3.org/1999/xlink" width="100" zoomAndPan="magnify" viewBox="0 0 75 37.5" height="50" preserveAspectRatio="xMidYMid meet" version="1.0"><defs><clipPath id="0a15dc2394"><path d="M 5.035156 10.183594 L 18.980469 10.183594 L 18.980469 16.214844 L 5.035156 16.214844 Z M 5.035156 10.183594 " clip-rule="nonzero"/></clipPath><clipPath id="b4ae418b08"><path d="M 12.007812 10.183594 L 5.035156 14.113281 L 8.777344 16.214844 C 9.507812 15.253906 10.683594 14.632812 12.007812 14.632812 C 13.335938 14.632812 14.507812 15.253906 15.246094 16.214844 L 18.980469 14.113281 Z M 12.007812 10.183594 " clip-rule="nonzero"/></clipPath><linearGradient x1="44.498001" gradientTransform="matrix(0.167495, 0, 0, 0.166879, 4.555021, 10.184738)" y1="-0.00798608" x2="44.500999" gradientUnits="userSpaceOnUse" y2="36.133066" id="0a80dd48da"><stop stop-opacity="1" stop-color="rgb(56.858826%, 38.038635%, 72.158813%)" offset="0"/><stop stop-opacity="1" stop-color="rgb(57.048035%, 38.038635%, 72.354126%)" offset="0.000191117"/><stop stop-opacity="1" stop-color="rgb(57.237244%, 38.038635%, 72.549438%)" offset="0.015625"/><stop stop-opacity="1" stop-color="rgb(57.243347%, 38.13324%, 72.644043%)" offset="0.0234375"/><stop stop-opacity="1" stop-color="rgb(57.250977%, 38.328552%, 72.839355%)" offset="0.03125"/><stop stop-opacity="1" stop-color="rgb(57.447815%, 38.42926%, 73.132324%)" offset="0.046875"/><stop stop-opacity="1" stop-color="rgb(57.832336%, 38.42926%, 73.518372%)" offset="0.0625"/><stop stop-opacity="1" stop-color="rgb(58.030701%, 38.522339%, 73.814392%)" offset="0.0703125"/><stop stop-opacity="1" stop-color="rgb(58.039856%, 38.716125%, 74.017334%)" offset="0.078125"/><stop stop-opacity="1" stop-color="rgb(58.229065%, 38.818359%, 74.308777%)" offset="0.09375"/><stop stop-opacity="1" stop-color="rgb(58.520508%, 38.917542%, 74.60022%)" offset="0.101562"/><stop stop-opacity="1" stop-color="rgb(58.72345%, 39.117432%, 74.80011%)" offset="0.109375"/><stop stop-opacity="1" stop-color="rgb(59.020996%, 39.219666%, 74.899292%)" offset="0.125"/><stop stop-opacity="1" stop-color="rgb(59.217834%, 39.407349%, 75.086975%)" offset="0.140625"/><stop stop-opacity="1" stop-color="rgb(59.313965%, 39.602661%, 75.379944%)" offset="0.148438"/><stop stop-opacity="1" stop-color="rgb(59.509277%, 39.608765%, 75.587463%)" offset="0.15625"/><stop stop-opacity="1" stop-color="rgb(59.802246%, 39.608765%, 75.881958%)" offset="0.171875"/><stop stop-opacity="1" stop-color="rgb(60.183716%, 39.796448%, 76.263428%)" offset="0.1875"/><stop stop-opacity="1" stop-color="rgb(60.38208%, 39.99176%, 76.554871%)" offset="0.195312"/><stop stop-opacity="1" stop-color="rgb(60.389709%, 39.99939%, 76.756287%)" offset="0.203125"/><stop stop-opacity="1" stop-color="rgb(60.578918%, 40.188599%, 77.049255%)" offset="0.21875"/><stop stop-opacity="1" stop-color="rgb(60.873413%, 40.383911%, 77.34375%)" offset="0.226562"/><stop stop-opacity="1" stop-color="rgb(61.080933%, 40.388489%, 77.55127%)" offset="0.234375"/><stop stop-opacity="1" stop-color="rgb(61.375427%, 40.388489%, 77.845764%)" offset="0.25"/><stop stop-opacity="1" stop-color="rgb(61.567688%, 40.577698%, 78.225708%)" offset="0.265625"/><stop stop-opacity="1" stop-color="rgb(61.663818%, 40.77301%, 78.517151%)" offset="0.273438"/><stop stop-opacity="1" stop-color="rgb(61.860657%, 40.78064%, 78.720093%)" offset="0.28125"/><stop stop-opacity="1" stop-color="rgb(62.1521%, 40.977478%, 79.017639%)" offset="0.296875"/><stop stop-opacity="1" stop-color="rgb(62.538147%, 41.175842%, 79.403687%)" offset="0.3125"/><stop stop-opacity="1" stop-color="rgb(62.741089%, 41.271973%, 79.695129%)" offset="0.320312"/><stop stop-opacity="1" stop-color="rgb(62.748718%, 41.467285%, 79.896545%)" offset="0.328125"/><stop stop-opacity="1" stop-color="rgb(62.939453%, 41.569519%, 80.189514%)" offset="0.34375"/><stop stop-opacity="1" stop-color="rgb(63.230896%, 41.569519%, 80.480957%)" offset="0.351562"/><stop stop-opacity="1" stop-color="rgb(63.433838%, 41.572571%, 80.683899%)" offset="0.359375"/><stop stop-opacity="1" stop-color="rgb(63.725281%, 41.766357%, 80.981445%)" offset="0.375"/><stop stop-opacity="1" stop-color="rgb(63.917542%, 41.957092%, 81.365967%)" offset="0.390625"/><stop stop-opacity="1" stop-color="rgb(64.013672%, 42.053223%, 81.65741%)" offset="0.398437"/><stop stop-opacity="1" stop-color="rgb(64.21051%, 42.248535%, 81.860352%)" offset="0.40625"/><stop stop-opacity="1" stop-color="rgb(64.508057%, 42.349243%, 82.15332%)" offset="0.421875"/><stop stop-opacity="1" stop-color="rgb(64.706421%, 42.541504%, 82.537842%)" offset="0.4375"/><stop stop-opacity="1" stop-color="rgb(64.805603%, 42.741394%, 82.836914%)" offset="0.46875"/><stop stop-opacity="1" stop-color="rgb(64.99939%, 42.749023%, 83.039856%)" offset="0.5"/><stop stop-opacity="1" stop-color="rgb(65.098572%, 42.749023%, 83.139038%)" offset="0.999809"/><stop stop-opacity="1" stop-color="rgb(65.098572%, 42.749023%, 83.139038%)" offset="1"/></linearGradient><clipPath id="9ec074717b"><path d="M 12.492188 14.921875 L 19.460938 14.921875 L 19.460938 26.707031 L 12.492188 26.707031 Z M 12.492188 14.921875 " clip-rule="nonzero"/></clipPath><clipPath id="3dc32f840b"><path d="M 15.726562 17.027344 C 15.9375 17.503906 16.054688 18.027344 16.054688 18.578125 C 16.054688 20.597656 14.492188 22.261719 12.492188 22.496094 L 12.492188 26.707031 L 19.464844 22.777344 L 19.464844 14.921875 Z M 15.726562 17.027344 " clip-rule="nonzero"/></clipPath><linearGradient x1="98.769681" gradientTransform="matrix(0.167495, 0, 0, 0.166879, 4.555021, 10.184738)" y1="81.191727" x2="37.00718" gradientUnits="userSpaceOnUse" y2="47.297648" id="c2639b012a"><stop stop-opacity="1" stop-color="rgb(90.979004%, 66.668701%, 40.779114%)" offset="0"/><stop stop-opacity="1" stop-color="rgb(90.979004%, 66.668701%, 40.779114%)" offset="0.125"/><stop stop-opacity="1" stop-color="rgb(90.992737%, 66.668701%, 40.779114%)" offset="0.15625"/><stop stop-opacity="1" stop-color="rgb(91.192627%, 66.864014%, 40.779114%)" offset="0.164062"/><stop stop-opacity="1" stop-color="rgb(91.763306%, 67.248535%, 40.974426%)" offset="0.167969"/><stop stop-opacity="1" stop-color="rgb(92.149353%, 67.43927%, 41.169739%)" offset="0.171875"/><stop stop-opacity="1" stop-color="rgb(92.529297%, 67.63916%, 41.174316%)" offset="0.175781"/><stop stop-opacity="1" stop-color="rgb(92.910767%, 67.83905%, 41.178894%)" offset="0.179688"/><stop stop-opacity="1" stop-color="rgb(93.295288%, 68.03894%, 41.178894%)" offset="0.183594"/><stop stop-opacity="1" stop-color="rgb(93.681335%, 68.238831%, 41.178894%)" offset="0.1875"/><stop stop-opacity="1" stop-color="rgb(94.111633%, 68.450928%, 41.374207%)" offset="0.191406"/><stop stop-opacity="1" stop-color="rgb(94.541931%, 68.663025%, 41.569519%)" offset="0.195312"/><stop stop-opacity="1" stop-color="rgb(94.728088%, 68.847656%, 41.569519%)" offset="0.203125"/><stop stop-opacity="1" stop-color="rgb(95.298767%, 69.413757%, 41.569519%)" offset="0.207031"/><stop stop-opacity="1" stop-color="rgb(95.684814%, 69.795227%, 41.569519%)" offset="0.210938"/><stop stop-opacity="1" stop-color="rgb(96.066284%, 69.985962%, 41.752625%)" offset="0.214844"/><stop stop-opacity="1" stop-color="rgb(96.447754%, 70.176697%, 41.937256%)" offset="0.21875"/><stop stop-opacity="1" stop-color="rgb(96.827698%, 70.362854%, 41.947937%)" offset="0.222656"/><stop stop-opacity="1" stop-color="rgb(97.209167%, 70.549011%, 41.958618%)" offset="0.226562"/><stop stop-opacity="1" stop-color="rgb(97.644043%, 70.76416%, 41.958618%)" offset="0.230469"/><stop stop-opacity="1" stop-color="rgb(98.078918%, 70.979309%, 41.958618%)" offset="0.234375"/><stop stop-opacity="1" stop-color="rgb(98.26355%, 71.174622%, 41.969299%)" offset="0.242188"/><stop stop-opacity="1" stop-color="rgb(98.835754%, 71.565247%, 42.164612%)" offset="0.246094"/><stop stop-opacity="1" stop-color="rgb(99.221802%, 71.762085%, 42.349243%)" offset="0.25"/><stop stop-opacity="1" stop-color="rgb(99.601746%, 71.960449%, 42.349243%)" offset="0.253906"/><stop stop-opacity="1" stop-color="rgb(99.983215%, 72.158813%, 42.349243%)" offset="0.257812"/><stop stop-opacity="1" stop-color="rgb(99.990845%, 72.158813%, 42.349243%)" offset="0.265625"/><stop stop-opacity="1" stop-color="rgb(100%, 72.158813%, 42.349243%)" offset="0.28125"/><stop stop-opacity="1" stop-color="rgb(100%, 72.158813%, 42.349243%)" offset="0.3125"/><stop stop-opacity="1" stop-color="rgb(100%, 72.158813%, 42.349243%)" offset="0.375"/><stop stop-opacity="1" stop-color="rgb(100%, 72.158813%, 42.349243%)" offset="0.482168"/><stop stop-opacity="1" stop-color="rgb(100%, 72.158813%, 42.349243%)" offset="0.5"/><stop stop-opacity="1" stop-color="rgb(100%, 72.158813%, 42.349243%)" offset="0.517832"/><stop stop-opacity="1" stop-color="rgb(100%, 72.158813%, 42.349243%)" offset="1"/></linearGradient><clipPath id="2e38ccaae1"><path d="M 4.554688 14.921875 L 11.53125 14.921875 L 11.53125 26.707031 L 4.554688 26.707031 Z M 4.554688 14.921875 " clip-rule="nonzero"/></clipPath><clipPath id="fca2c53fb6"><path d="M 7.964844 18.578125 C 7.964844 18.027344 8.078125 17.5 8.289062 17.023438 L 4.554688 14.921875 L 4.554688 22.777344 L 11.53125 26.707031 L 11.53125 22.496094 C 9.523438 22.261719 7.960938 20.597656 7.960938 18.578125 Z M 7.964844 18.578125 " clip-rule="nonzero"/></clipPath><linearGradient x1="52.215119" gradientTransform="matrix(0.167495, 0, 0, 0.166879, 4.555021, 10.184738)" y1="48.454463" x2="-9.501704" gradientUnits="userSpaceOnUse" y2="80.97695" id="5ff8892945"><stop stop-opacity="1" stop-color="rgb(39.99939%, 85.099792%, 90.979004%)" offset="0"/><stop stop-opacity="1" stop-color="rgb(39.99939%, 85.099792%, 90.979004%)" offset="0.471852"/><stop stop-opacity="1" stop-color="rgb(39.99939%, 85.099792%, 90.979004%)" offset="0.5"/><stop stop-opacity="1" stop-color="rgb(39.99939%, 85.099792%, 90.979004%)" offset="0.528148"/><stop stop-opacity="1" stop-color="rgb(39.99939%, 85.099792%, 90.979004%)" offset="0.625"/><stop stop-opacity="1" stop-color="rgb(39.99939%, 85.099792%, 90.979004%)" offset="0.6875"/><stop stop-opacity="1" stop-color="rgb(39.99939%, 85.099792%, 90.979004%)" offset="0.71875"/><stop stop-opacity="1" stop-color="rgb(39.99939%, 84.90448%, 90.783691%)" offset="0.726562"/><stop stop-opacity="1" stop-color="rgb(39.804077%, 84.487915%, 90.194702%)" offset="0.730469"/><stop stop-opacity="1" stop-color="rgb(39.608765%, 84.268188%, 89.7995%)" offset="0.734375"/><stop stop-opacity="1" stop-color="rgb(39.608765%, 83.898926%, 89.59198%)" offset="0.738281"/><stop stop-opacity="1" stop-color="rgb(39.608765%, 83.529663%, 89.385986%)" offset="0.742187"/><stop stop-opacity="1" stop-color="rgb(39.413452%, 83.331299%, 89.199829%)" offset="0.746094"/><stop stop-opacity="1" stop-color="rgb(39.219666%, 83.13446%, 89.015198%)" offset="0.75"/><stop stop-opacity="1" stop-color="rgb(39.219666%, 82.9422%, 88.633728%)" offset="0.753906"/><stop stop-opacity="1" stop-color="rgb(39.219666%, 82.749939%, 88.252258%)" offset="0.757812"/><stop stop-opacity="1" stop-color="rgb(39.219666%, 82.548523%, 88.061523%)" offset="0.761719"/><stop stop-opacity="1" stop-color="rgb(39.219666%, 82.348633%, 87.872314%)" offset="0.765625"/><stop stop-opacity="1" stop-color="rgb(39.019775%, 81.958008%, 87.637329%)" offset="0.769531"/><stop stop-opacity="1" stop-color="rgb(38.819885%, 81.568909%, 87.402344%)" offset="0.773437"/><stop stop-opacity="1" stop-color="rgb(38.819885%, 81.373596%, 87.036133%)" offset="0.777344"/><stop stop-opacity="1" stop-color="rgb(38.819885%, 81.17981%, 86.669922%)" offset="0.78125"/><stop stop-opacity="1" stop-color="rgb(38.813782%, 80.973816%, 86.463928%)" offset="0.785156"/><stop stop-opacity="1" stop-color="rgb(38.807678%, 80.767822%, 86.257935%)" offset="0.789062"/><stop stop-opacity="1" stop-color="rgb(38.618469%, 80.578613%, 86.068726%)" offset="0.796875"/><stop stop-opacity="1" stop-color="rgb(38.42926%, 80.010986%, 85.501099%)" offset="0.800781"/><stop stop-opacity="1" stop-color="rgb(38.42926%, 79.634094%, 85.124207%)" offset="0.804687"/><stop stop-opacity="1" stop-color="rgb(38.25531%, 79.447937%, 84.916687%)" offset="0.808594"/><stop stop-opacity="1" stop-color="rgb(38.082886%, 79.263306%, 84.709167%)" offset="0.8125"/><stop stop-opacity="1" stop-color="rgb(38.059998%, 79.023743%, 84.313965%)" offset="0.816406"/><stop stop-opacity="1" stop-color="rgb(38.038635%, 78.78418%, 83.918762%)" offset="0.820312"/><stop stop-opacity="1" stop-color="rgb(38.038635%, 78.598022%, 83.714294%)" offset="0.824219"/><stop stop-opacity="1" stop-color="rgb(38.038635%, 78.411865%, 83.511353%)" offset="0.828125"/><stop stop-opacity="1" stop-color="rgb(37.843323%, 78.225708%, 83.325195%)" offset="0.835937"/><stop stop-opacity="1" stop-color="rgb(37.649536%, 77.653503%, 82.752991%)" offset="0.839844"/><stop stop-opacity="1" stop-color="rgb(37.649536%, 77.268982%, 82.368469%)" offset="0.84375"/><stop stop-opacity="1" stop-color="rgb(37.649536%, 77.258301%, 82.357788%)" offset="0.875"/><stop stop-opacity="1" stop-color="rgb(37.649536%, 77.249146%, 82.348633%)" offset="1"/></linearGradient></defs><path fill="#2e2e2e" d="M 23.300781 23.199219 L 27.851562 11.941406 L 29.636719 11.941406 L 34.171875 23.199219 L 31.839844 23.199219 L 28.332031 13.957031 L 29.136719 13.957031 L 25.585938 23.199219 Z M 25.714844 21.101562 L 25.714844 19.277344 L 31.792969 19.277344 L 31.792969 21.101562 Z M 35.34375 22 L 39.457031 16.664062 L 42 16.664062 L 37.882812 22 Z M 35.34375 23.199219 L 35.34375 22 L 37.015625 21.375 L 41.902344 21.375 L 41.902344 23.199219 Z M 35.632812 17.289062 L 35.632812 15.464844 L 42 15.464844 L 42 16.664062 L 40.3125 17.289062 Z M 47.292969 23.359375 C 46.507812 23.359375 45.800781 23.183594 45.167969 22.832031 C 44.546875 22.46875 44.046875 21.984375 43.675781 21.375 C 43.308594 20.757812 43.125 20.066406 43.125 19.308594 C 43.125 18.550781 43.308594 17.871094 43.675781 17.273438 C 44.039062 16.664062 44.539062 16.183594 45.167969 15.832031 C 45.800781 15.46875 46.503906 15.289062 47.277344 15.289062 C 48.066406 15.289062 48.777344 15.46875 49.398438 15.832031 C 50.03125 16.183594 50.53125 16.664062 50.894531 17.273438 C 51.257812 17.871094 51.441406 18.550781 51.441406 19.308594 C 51.441406 20.066406 51.257812 20.757812 50.894531 21.375 C 50.53125 21.984375 50.03125 22.46875 49.398438 22.832031 C 48.777344 23.183594 48.074219 23.359375 47.292969 23.359375 Z M 47.277344 21.40625 C 47.671875 21.40625 48.019531 21.320312 48.320312 21.148438 C 48.632812 20.96875 48.867188 20.722656 49.027344 20.414062 C 49.199219 20.09375 49.285156 19.730469 49.285156 19.324219 C 49.285156 18.917969 49.199219 18.5625 49.027344 18.25 C 48.855469 17.941406 48.621094 17.703125 48.320312 17.53125 C 48.019531 17.347656 47.671875 17.257812 47.277344 17.257812 C 46.890625 17.257812 46.546875 17.347656 46.246094 17.53125 C 45.945312 17.703125 45.710938 17.941406 45.539062 18.25 C 45.367188 18.5625 45.28125 18.917969 45.28125 19.324219 C 45.28125 19.730469 45.367188 20.09375 45.539062 20.414062 C 45.710938 20.722656 45.945312 20.96875 46.246094 21.148438 C 46.546875 21.320312 46.890625 21.40625 47.277344 21.40625 Z M 57.585938 23.359375 C 57.03125 23.359375 56.527344 23.25 56.078125 23.023438 C 55.625 22.789062 55.265625 22.472656 55 22.082031 C 54.730469 21.683594 54.585938 21.230469 54.566406 20.71875 L 54.566406 17.980469 C 54.585938 17.464844 54.730469 17.011719 55 16.617188 C 55.277344 16.210938 55.636719 15.890625 56.078125 15.65625 C 56.527344 15.421875 57.03125 15.304688 57.585938 15.304688 C 58.304688 15.304688 58.949219 15.480469 59.519531 15.832031 C 60.085938 16.183594 60.53125 16.664062 60.851562 17.273438 C 61.183594 17.882812 61.351562 18.570312 61.351562 19.339844 C 61.351562 20.097656 61.183594 20.78125 60.851562 21.390625 C 60.53125 22 60.085938 22.480469 59.519531 22.832031 C 58.949219 23.183594 58.304688 23.359375 57.585938 23.359375 Z M 53.277344 26.4375 L 53.277344 15.464844 L 55.386719 15.464844 L 55.386719 17.5 L 55.03125 19.371094 L 55.371094 21.246094 L 55.371094 26.4375 Z M 57.21875 21.421875 C 57.601562 21.421875 57.945312 21.335938 58.246094 21.167969 C 58.546875 20.984375 58.777344 20.738281 58.9375 20.429688 C 59.109375 20.109375 59.195312 19.742188 59.195312 19.324219 C 59.195312 18.917969 59.109375 18.5625 58.9375 18.25 C 58.777344 17.929688 58.546875 17.683594 58.246094 17.515625 C 57.945312 17.332031 57.601562 17.242188 57.21875 17.242188 C 56.84375 17.242188 56.503906 17.332031 56.207031 17.515625 C 55.90625 17.683594 55.667969 17.929688 55.5 18.25 C 55.335938 18.5625 55.257812 18.917969 55.257812 19.324219 C 55.257812 19.742188 55.335938 20.109375 55.5 20.429688 C 55.667969 20.738281 55.898438 20.984375 56.1875 21.167969 C 56.488281 21.335938 56.832031 21.421875 57.21875 21.421875 Z M 65.882812 23.378906 C 65.445312 23.378906 65.011719 23.316406 64.582031 23.199219 C 64.164062 23.085938 63.777344 22.925781 63.421875 22.722656 C 63.070312 22.507812 62.761719 22.25 62.507812 21.949219 L 63.761719 20.6875 C 64.027344 20.984375 64.339844 21.210938 64.695312 21.359375 C 65.046875 21.507812 65.4375 21.582031 65.867188 21.582031 C 66.210938 21.582031 66.46875 21.535156 66.640625 21.441406 C 66.820312 21.34375 66.910156 21.199219 66.910156 21.007812 C 66.910156 20.792969 66.816406 20.625 66.621094 20.511719 C 66.441406 20.394531 66.199219 20.296875 65.898438 20.222656 C 65.597656 20.136719 65.28125 20.046875 64.949219 19.949219 C 64.628906 19.84375 64.316406 19.710938 64.015625 19.550781 C 63.71875 19.378906 63.472656 19.148438 63.277344 18.859375 C 63.09375 18.5625 63.003906 18.175781 63.003906 17.707031 C 63.003906 17.214844 63.121094 16.789062 63.359375 16.425781 C 63.605469 16.0625 63.953125 15.777344 64.40625 15.574219 C 64.855469 15.371094 65.382812 15.269531 65.996094 15.269531 C 66.640625 15.269531 67.21875 15.382812 67.730469 15.609375 C 68.257812 15.832031 68.691406 16.167969 69.035156 16.617188 L 67.765625 17.882812 C 67.527344 17.59375 67.261719 17.386719 66.960938 17.257812 C 66.671875 17.128906 66.355469 17.066406 66.011719 17.066406 C 65.699219 17.066406 65.460938 17.113281 65.289062 17.207031 C 65.128906 17.304688 65.046875 17.4375 65.046875 17.609375 C 65.046875 17.800781 65.136719 17.953125 65.320312 18.058594 C 65.511719 18.164062 65.757812 18.261719 66.0625 18.347656 C 66.359375 18.421875 66.671875 18.511719 66.992188 18.621094 C 67.324219 18.714844 67.636719 18.855469 67.925781 19.035156 C 68.226562 19.21875 68.464844 19.457031 68.648438 19.757812 C 68.84375 20.054688 68.9375 20.441406 68.9375 20.910156 C 68.9375 21.667969 68.664062 22.273438 68.117188 22.722656 C 67.570312 23.15625 66.828125 23.378906 65.882812 23.378906 Z M 65.882812 23.378906 " fill-opacity="1" fill-rule="nonzero"/><path fill="#ffb86c" d="M 15.09375 18.578125 C 15.09375 18.203125 15.019531 17.839844 14.886719 17.5 L 12.488281 18.847656 L 12.488281 21.546875 C 13.960938 21.324219 15.09375 20.078125 15.09375 18.578125 Z M 15.09375 18.578125 " fill-opacity="1" fill-rule="nonzero"/><path fill="#a66dd4" d="M 14.40625 16.6875 C 13.839844 16.003906 12.980469 15.570312 12.007812 15.570312 C 11.042969 15.570312 10.175781 16.003906 9.613281 16.6875 L 12.007812 18.035156 Z M 14.40625 16.6875 " fill-opacity="1" fill-rule="nonzero"/><g clip-path="url(#0a15dc2394)"><g clip-path="url(#b4ae418b08)"><path fill="url(#0a80dd48da)" d="M 5.035156 10.183594 L 5.035156 16.214844 L 18.980469 16.214844 L 18.980469 10.183594 Z M 5.035156 10.183594 " fill-rule="nonzero"/></g></g><g clip-path="url(#9ec074717b)"><g clip-path="url(#3dc32f840b)"><path fill="url(#c2639b012a)" d="M 12.492188 14.921875 L 12.492188 26.707031 L 19.460938 26.707031 L 19.460938 14.921875 Z M 12.492188 14.921875 " fill-rule="nonzero"/></g></g><g clip-path="url(#2e38ccaae1)"><g clip-path="url(#fca2c53fb6)"><path fill="url(#5ff8892945)" d="M 4.554688 14.921875 L 4.554688 26.707031 L 11.53125 26.707031 L 11.53125 14.921875 Z M 4.554688 14.921875 " fill-rule="nonzero"/></g></g><path fill="#66d9e8" d="M 8.925781 18.578125 C 8.925781 20.078125 10.054688 21.324219 11.53125 21.546875 L 11.53125 18.847656 L 9.132812 17.5 C 8.996094 17.839844 8.925781 18.203125 8.925781 18.578125 Z M 8.925781 18.578125 " fill-opacity="1" fill-rule="nonzero"/></svg>